<svg width="157.02001953125px" height="75.207470703125px" xmlns="http://www.w3.org/2000/svg" viewBox="171.489990234375 37.3962646484375 157.02001953125 75.207470703125" style="background: rgba(0, 0, 0, 0);" preserveAspectRatio="xMidYMid"><defs><linearGradient id="editing-outline-gradient" x1="-0.41354545764260087" x2="1.4135454576426008" y1="0.09326335692419985" y2="0.9067366430758002"><stop offset="0" stop-color="#ee4208"></stop><stop offset="1" stop-color="#4139ff"></stop></linearGradient><filter id="editing-outline" x="-100%" y="-100%" width="300%" height="300%"><feMorphology in="SourceGraphic" operator="dilate" radius="1" result="outline"></feMorphology><feComposite operator="out" in="outline" in2="SourceAlpha"></feComposite></filter></defs><g filter="url(#editing-outline)"><g transform="translate(199.32500195503235, 86.78499984741211)"><path d="M5.75-5.31L5.75-5.31L5.75-5.31Q5.75-3.91 6.33-3.22L6.33-3.22L6.33-3.22Q6.91-2.53 8-2.41L8-2.41L8 0.13L8 0.13Q7.88 0.16 7.59 0.16L7.59 0.16L7.59 0.16Q6.53 0.16 5.55-0.13L5.55-0.13L5.55-0.13Q4.56-0.41 3.81-1.03L3.81-1.03L3.81-1.03Q3.06-1.66 2.64-2.69L2.64-2.69L2.64-2.69Q2.22-3.72 2.22-5.22L2.22-5.22L2.22-5.22Q2.22-6.66 2.83-7.70L2.83-7.70L2.83-7.70Q3.44-8.75 4.39-9.42L4.39-9.42L4.39-9.42Q5.34-10.09 6.56-10.42L6.56-10.42L6.56-10.42Q7.78-10.75 9.03-10.75L9.03-10.75L10.41-10.75L10.41-8.53L9.72-8.53L9.72-8.53Q9.09-8.53 8.41-8.41L8.41-8.41L8.41-8.41Q7.72-8.28 7.13-7.94L7.13-7.94L7.13-7.94Q6.53-7.59 6.14-6.95L6.14-6.95L6.14-6.95Q5.75-6.31 5.75-5.31ZM15.47-5.47L15.47-5.22L15.47-5.22Q15.47-4.97 15.50-4.48L15.50-4.48L15.50-4.48Q15.53-4 15.63-3.50L15.63-3.50L15.63-3.50Q15.72-3 15.92-2.59L15.92-2.59L15.92-2.59Q16.13-2.19 16.47-2.06L16.47-2.06L15.47 0.03L15.47 0.03Q15.06 0.03 14.61-0.16L14.61-0.16L14.61-0.16Q14.16-0.34 13.73-0.69L13.73-0.69L13.73-0.69Q13.31-1.03 13.02-1.45L13.02-1.45L13.02-1.45Q12.72-1.88 12.56-2.38L12.56-2.38L12.56-2.38Q12.25-1.59 11.33-0.98L11.33-0.98L11.33-0.98Q10.41-0.38 9.28-0.09L9.28-0.09L9.28-2.47L9.28-2.47Q10.03-2.63 10.64-3.08L10.64-3.08L10.64-3.08Q11.25-3.53 11.69-4.16L11.69-4.16L11.69-10.75L11.69-10.75Q11.69-12.28 11.53-13.19L11.53-13.19L11.53-13.19Q11.38-14.09 11-14.52L11-14.52L11-14.52Q10.63-14.94 10.08-15.05L10.08-15.05L10.08-15.05Q9.53-15.16 8.78-15.16L8.78-15.16L8.78-15.16Q8.09-15.16 7.48-14.98L7.48-14.98L7.48-14.98Q6.88-14.81 6.36-14.58L6.36-14.58L6.36-14.58Q5.84-14.34 5.45-14.06L5.45-14.06L5.45-14.06Q5.06-13.78 4.88-13.63L4.88-13.63L3.47-15.78L3.47-15.78Q3.78-16.13 4.41-16.48L4.41-16.48L4.41-16.48Q5.03-16.84 5.84-17.13L5.84-17.13L5.84-17.13Q6.66-17.41 7.61-17.58L7.61-17.58L7.61-17.58Q8.56-17.75 9.59-17.75L9.59-17.75L9.59-17.75Q10.53-17.75 11.42-17.56L11.42-17.56L11.42-17.56Q12.31-17.38 13.05-16.94L13.05-16.94L13.05-16.94Q13.78-16.50 14.33-15.77L14.33-15.77L14.33-15.77Q14.88-15.03 15.09-13.94L15.09-13.94L15.09-13.94Q15.31-12.84 15.39-11.73L15.39-11.73L15.39-11.73Q15.47-10.63 15.47-9.53L15.47-9.53L15.47-5.47ZM32.50-23L40.50 0L36.63 0L30.66-17.25L24.63 0L20.72 0L28.78-23L32.50-23ZM28.53-7.31L32.72-7.31L33.63-4.78L27.66-4.78L28.53-7.31ZM49.19 0L45.38 0L45.38-23.03L49.19-23.03L49.19 0ZM60.34-23.03L52.97-11.19L60.97 0L56.63 0L50.47-9.06L50.47-13.63L56.06-23.03L60.34-23.03ZM76.81-19.47L76.81-19.47L76.81-19.47Q76.66-19.53 76.44-19.69L76.44-19.69L76.44-19.69Q76.22-19.84 75.81-19.98L75.81-19.98L75.81-19.98Q75.41-20.13 74.78-20.22L74.78-20.22L74.78-20.22Q74.16-20.31 73.19-20.25L73.19-20.25L73.19-23.41L73.19-23.41Q74.56-23.38 75.98-23.11L75.98-23.11L75.98-23.11Q77.41-22.84 78.28-22.28L78.28-22.28L78.28-22.28Q78.09-21.88 77.84-21.39L77.84-21.39L77.84-21.39Q77.59-20.91 77.38-20.48L77.38-20.48L77.38-20.48Q77.16-20.06 77-19.78L77-19.78L77-19.78Q76.84-19.50 76.81-19.47ZM66.03-16.97L66.03-16.97L66.03-16.97Q66.03-18.34 66.50-19.44L66.50-19.44L66.50-19.44Q66.97-20.53 67.77-21.36L67.77-21.36L67.77-21.36Q68.56-22.19 69.64-22.67L69.64-22.67L69.64-22.67Q70.72-23.16 71.91-23.31L71.91-23.31L71.91-20.03L71.91-20.03Q70.91-19.69 70.25-18.83L70.25-18.83L70.25-18.83Q69.59-17.97 69.59-17.09L69.59-17.09L69.59-17.09Q69.59-15.88 70.25-15.13L70.25-15.13L70.25-15.13Q70.91-14.38 71.91-13.81L71.91-13.81L71.91-10.25L71.91-10.25Q70.88-10.75 69.84-11.33L69.84-11.33L69.84-11.33Q68.81-11.91 67.97-12.69L67.97-12.69L67.97-12.69Q67.13-13.47 66.58-14.50L66.58-14.50L66.58-14.50Q66.03-15.53 66.03-16.97ZM65.88-1.53L66.53-4.22L66.53-4.22Q66.97-3.97 67.64-3.73L67.64-3.73L67.64-3.73Q68.31-3.50 69.03-3.30L69.03-3.30L69.03-3.30Q69.75-3.09 70.47-2.97L70.47-2.97L70.47-2.97Q71.19-2.84 71.81-2.84L71.81-2.84L71.91-2.84L71.91 0.13L71.84 0.13L71.84 0.13Q71.09 0.13 70.30 0.05L70.30 0.05L70.30 0.05Q69.50-0.03 68.69-0.22L68.69-0.22L68.69-0.22Q67.88-0.41 67.14-0.73L67.14-0.73L67.14-0.73Q66.41-1.06 65.88-1.53L65.88-1.53ZM73.19-9.53L73.19-13.19L73.19-13.19Q74.22-12.72 75.30-12.19L75.30-12.19L75.30-12.19Q76.38-11.66 77.25-10.89L77.25-10.89L77.25-10.89Q78.13-10.13 78.69-9.03L78.69-9.03L78.69-9.03Q79.25-7.94 79.25-6.31L79.25-6.31L79.25-6.31Q79.25-5.19 78.83-4.13L78.83-4.13L78.83-4.13Q78.41-3.06 77.64-2.20L77.64-2.20L77.64-2.20Q76.88-1.34 75.75-0.75L75.75-0.75L75.75-0.75Q74.63-0.16 73.19 0.03L73.19 0.03L73.19-2.97L73.19-2.97Q75.75-3.59 75.75-6.38L75.75-6.38L75.75-6.38Q75.75-7.47 75.03-8.19L75.03-8.19L75.03-8.19Q74.31-8.91 73.19-9.53L73.19-9.53ZM88.47-7.69L94.84-23.03L99.13-23.03L92.28-9.38L92.28 0L88.47 0L88.47-7.69ZM81.97-23.03L86.25-23.03L89.72-14.06L88.03-9.97L81.97-23.03Z" fill="url(#editing-outline-gradient)"></path></g></g><style>text {
  font-size: 64px;
  font-family: Arial Black;
  dominant-baseline: central;
  text-anchor: middle;
}</style></svg>